<svg width="48" height="44" viewBox="0 0 48 44" fill="none" xmlns="http://www.w3.org/2000/svg">
<path d="M15.5054 29.3074V27.3074H17.5054V20.3074C17.5054 18.924 17.922 17.6947 18.7554 16.6194C19.5887 15.5447 20.672 14.8407 22.0054 14.5074V13.8074C22.0054 13.3907 22.1514 13.0367 22.4434 12.7454C22.7347 12.4534 23.0887 12.3074 23.5054 12.3074C23.922 12.3074 24.276 12.4534 24.5674 12.7454C24.8594 13.0367 25.0054 13.3907 25.0054 13.8074V14.5074C26.3387 14.8407 27.422 15.5447 28.2554 16.6194C29.0887 17.6947 29.5054 18.924 29.5054 20.3074V27.3074H31.5054V29.3074H15.5054ZM23.5054 32.3074C22.9554 32.3074 22.4847 32.1117 22.0934 31.7204C21.7014 31.3284 21.5054 30.8574 21.5054 30.3074H25.5054C25.5054 30.8574 25.3097 31.3284 24.9184 31.7204C24.5264 32.1117 24.0554 32.3074 23.5054 32.3074ZM19.5054 27.3074H27.5054V20.3074C27.5054 19.2074 27.1137 18.2657 26.3304 17.4824C25.547 16.699 24.6054 16.3074 23.5054 16.3074C22.4054 16.3074 21.4637 16.699 20.6804 17.4824C19.897 18.2657 19.5054 19.2074 19.5054 20.3074V27.3074Z" fill="#D8DCE1"/>
</svg>
