<svg width="80" height="58" viewBox="0 0 80 58" fill="none" xmlns="http://www.w3.org/2000/svg">
<rect x="8" width="64" height="58" rx="4" fill="#383B42"/>
<path d="M38 11C37.7348 11 37.4805 11.1054 37.2929 11.2929C37.1054 11.4805 37 11.7348 37 12V16C37 16.2652 37.1054 16.5195 37.2929 16.7071C37.4805 16.8946 37.7348 17 38 17H39V19H32C31.7348 19 31.4805 19.1054 31.2929 19.2929C31.1054 19.4805 31 19.7348 31 20V23H30C29.7348 23 29.4805 23.1054 29.2929 23.2929C29.1054 23.4805 29 23.7348 29 24V28C29 28.2652 29.1054 28.5195 29.2929 28.7071C29.4805 28.8946 29.7348 29 30 29H34C34.2652 29 34.5195 28.8946 34.7071 28.7071C34.8946 28.5195 35 28.2652 35 28V24C35 23.7348 34.8946 23.4805 34.7071 23.2929C34.5195 23.1054 34.2652 23 34 23H33V21H39V23H38C37.7348 23 37.4805 23.1054 37.2929 23.2929C37.1054 23.4805 37 23.7348 37 24V28C37 28.2652 37.1054 28.5195 37.2929 28.7071C37.4805 28.8946 37.7348 29 38 29H42C42.2652 29 42.5195 28.8946 42.7071 28.7071C42.8946 28.5195 43 28.2652 43 28V24C43 23.7348 42.8946 23.4805 42.7071 23.2929C42.5195 23.1054 42.2652 23 42 23H41V21H47V23H46C45.7348 23 45.4805 23.1054 45.2929 23.2929C45.1054 23.4805 45 23.7348 45 24V28C45 28.2652 45.1054 28.5195 45.2929 28.7071C45.4805 28.8946 45.7348 29 46 29H50C50.2652 29 50.5195 28.8946 50.7071 28.7071C50.8946 28.5195 51 28.2652 51 28V24C51 23.7348 50.8946 23.4805 50.7071 23.2929C50.5195 23.1054 50.2652 23 50 23H49V20C49 19.7348 48.8946 19.4805 48.7071 19.2929C48.5195 19.1054 48.2652 19 48 19H41V17H42C42.2652 17 42.5195 16.8946 42.7071 16.7071C42.8946 16.5195 43 16.2652 43 16V12C43 11.7348 42.8946 11.4805 42.7071 11.2929C42.5195 11.1054 42.2652 11 42 11H38ZM39 13H41V15H40.1543C40.0981 14.9906 40.0413 14.986 39.9844 14.9863C39.9359 14.9874 39.8876 14.9919 39.8398 15H39V13ZM31 25H33V27H31V25ZM39 25H39.832C39.94 25.0178 40.0502 25.0178 40.1582 25H41V27H39V25ZM47 25H49V27H47V25Z" fill="white"/>
<path d="M16.4022 40.2727H18.0002L20.7786 47.0568H20.8809L23.6593 40.2727H25.2573V49H24.0044V42.6847H23.9235L21.3496 48.9872H20.3098L17.736 42.6804H17.655V49H16.4022V40.2727ZM29.8265 49.1321C29.2129 49.1321 28.6774 48.9915 28.22 48.7102C27.7626 48.429 27.4075 48.0355 27.1547 47.5298C26.9018 47.0241 26.7754 46.4332 26.7754 45.7571C26.7754 45.0781 26.9018 44.4844 27.1547 43.9759C27.4075 43.4673 27.7626 43.0724 28.22 42.7912C28.6774 42.5099 29.2129 42.3693 29.8265 42.3693C30.4402 42.3693 30.9757 42.5099 31.4331 42.7912C31.8904 43.0724 32.2456 43.4673 32.4984 43.9759C32.7512 44.4844 32.8777 45.0781 32.8777 45.7571C32.8777 46.4332 32.7512 47.0241 32.4984 47.5298C32.2456 48.0355 31.8904 48.429 31.4331 48.7102C30.9757 48.9915 30.4402 49.1321 29.8265 49.1321ZM29.8308 48.0625C30.2285 48.0625 30.5581 47.9574 30.8194 47.7472C31.0808 47.5369 31.274 47.2571 31.399 46.9077C31.5268 46.5582 31.5907 46.1733 31.5907 45.7528C31.5907 45.3352 31.5268 44.9517 31.399 44.6023C31.274 44.25 31.0808 43.9673 30.8194 43.7543C30.5581 43.5412 30.2285 43.4347 29.8308 43.4347C29.4302 43.4347 29.0978 43.5412 28.8336 43.7543C28.5723 43.9673 28.3777 44.25 28.2498 44.6023C28.1248 44.9517 28.0623 45.3352 28.0623 45.7528C28.0623 46.1733 28.1248 46.5582 28.2498 46.9077C28.3777 47.2571 28.5723 47.5369 28.8336 47.7472C29.0978 47.9574 29.4302 48.0625 29.8308 48.0625ZM36.7502 49.1278C36.2218 49.1278 35.7502 48.9929 35.3354 48.723C34.9235 48.4503 34.5996 48.0625 34.3638 47.5597C34.1309 47.054 34.0144 46.4474 34.0144 45.7401C34.0144 45.0327 34.1323 44.4276 34.3681 43.9247C34.6067 43.4219 34.9334 43.0369 35.3482 42.7699C35.763 42.5028 36.2331 42.3693 36.7587 42.3693C37.165 42.3693 37.4917 42.4375 37.7388 42.5739C37.9888 42.7074 38.182 42.8636 38.3184 43.0426C38.4576 43.2216 38.5655 43.3793 38.6422 43.5156H38.7189V40.2727H39.9931V49H38.7488V47.9815H38.6422C38.5655 48.1207 38.4547 48.2798 38.3098 48.4588C38.1678 48.6378 37.9718 48.794 37.7218 48.9276C37.4718 49.0611 37.1479 49.1278 36.7502 49.1278ZM37.0314 48.0412C37.3979 48.0412 37.7076 47.9446 37.9604 47.7514C38.2161 47.5554 38.4093 47.2841 38.54 46.9375C38.6735 46.5909 38.7402 46.1875 38.7402 45.7273C38.7402 45.2727 38.6749 44.875 38.5442 44.5341C38.4135 44.1932 38.2218 43.9276 37.9689 43.7372C37.7161 43.5469 37.4036 43.4517 37.0314 43.4517C36.6479 43.4517 36.3283 43.5511 36.0726 43.75C35.8169 43.9489 35.6238 44.2202 35.4931 44.5639C35.3652 44.9077 35.3013 45.2955 35.3013 45.7273C35.3013 46.1648 35.3667 46.5582 35.4973 46.9077C35.628 47.2571 35.8212 47.5341 36.0769 47.7386C36.3354 47.9403 36.6536 48.0412 37.0314 48.0412ZM45.9579 46.2855V42.4545H47.2363V49H45.9835V47.8665H45.9153C45.7647 48.2159 45.5233 48.5071 45.1909 48.7401C44.8613 48.9702 44.4508 49.0852 43.9593 49.0852C43.5389 49.0852 43.1667 48.9929 42.8429 48.8082C42.5218 48.6207 42.269 48.3438 42.0843 47.9773C41.9025 47.6108 41.8116 47.1577 41.8116 46.6179V42.4545H43.0858V46.4645C43.0858 46.9105 43.2093 47.2656 43.4565 47.5298C43.7037 47.794 44.0247 47.9261 44.4196 47.9261C44.6582 47.9261 44.8954 47.8665 45.1312 47.7472C45.3699 47.6278 45.5673 47.4474 45.7235 47.206C45.8826 46.9645 45.9608 46.6577 45.9579 46.2855ZM50.2225 40.2727V49H48.9483V40.2727H50.2225ZM54.7576 49.1321C54.1127 49.1321 53.5574 48.9943 53.0914 48.7188C52.6284 48.4403 52.2704 48.0497 52.0176 47.5469C51.7676 47.0412 51.6426 46.4489 51.6426 45.7699C51.6426 45.0994 51.7676 44.5085 52.0176 43.9972C52.2704 43.4858 52.6227 43.0866 53.0744 42.7997C53.5289 42.5128 54.0602 42.3693 54.6681 42.3693C55.0375 42.3693 55.3954 42.4304 55.742 42.5526C56.0886 42.6747 56.3997 42.8665 56.6752 43.1278C56.9508 43.3892 57.1681 43.7287 57.3272 44.1463C57.4863 44.5611 57.5659 45.0653 57.5659 45.6591V46.1108H52.3627V45.1562H56.3173C56.3173 44.821 56.2491 44.5241 56.1127 44.2656C55.9764 44.0043 55.7846 43.7983 55.5375 43.6477C55.2931 43.4972 55.0062 43.4219 54.6767 43.4219C54.3187 43.4219 54.0062 43.5099 53.7392 43.6861C53.475 43.8594 53.2704 44.0866 53.1255 44.3679C52.9835 44.6463 52.9125 44.9489 52.9125 45.2756V46.0213C52.9125 46.4588 52.9892 46.831 53.1426 47.1378C53.2988 47.4446 53.5162 47.679 53.7946 47.8409C54.073 48 54.3983 48.0795 54.7704 48.0795C55.0119 48.0795 55.2321 48.0455 55.4309 47.9773C55.6298 47.9062 55.8017 47.8011 55.9466 47.6619C56.0914 47.5227 56.2022 47.3509 56.2789 47.1463L57.4849 47.3636C57.3883 47.7187 57.215 48.0298 56.965 48.2969C56.7179 48.5611 56.4068 48.767 56.0318 48.9148C55.6596 49.0597 55.2349 49.1321 54.7576 49.1321ZM63.8844 44.0526L62.7296 44.2571C62.6813 44.1094 62.6046 43.9687 62.4995 43.8352C62.3972 43.7017 62.258 43.5923 62.0819 43.5071C61.9057 43.4219 61.6855 43.3793 61.4213 43.3793C61.0605 43.3793 60.7594 43.4602 60.5179 43.6222C60.2765 43.7812 60.1557 43.9872 60.1557 44.2401C60.1557 44.4588 60.2367 44.6349 60.3986 44.7685C60.5605 44.902 60.8219 45.0114 61.1827 45.0966L62.2225 45.3352C62.8248 45.4744 63.2736 45.6889 63.5691 45.9787C63.8645 46.2685 64.0123 46.6449 64.0123 47.108C64.0123 47.5 63.8986 47.8494 63.6713 48.1562C63.4469 48.4602 63.133 48.6989 62.7296 48.8722C62.329 49.0455 61.8645 49.1321 61.3361 49.1321C60.6032 49.1321 60.0051 48.9759 59.5421 48.6634C59.079 48.348 58.7949 47.9006 58.6898 47.321L59.9213 47.1335C59.998 47.4545 60.1557 47.6974 60.3944 47.8622C60.633 48.0241 60.9441 48.1051 61.3276 48.1051C61.7452 48.1051 62.079 48.0185 62.329 47.8452C62.579 47.669 62.704 47.4545 62.704 47.2017C62.704 46.9972 62.6273 46.8253 62.4739 46.6861C62.3233 46.5469 62.0918 46.4418 61.7793 46.3707L60.6713 46.1278C60.0605 45.9886 59.6088 45.767 59.3162 45.4631C59.0265 45.1591 58.8816 44.7741 58.8816 44.3082C58.8816 43.9219 58.9895 43.5838 59.2054 43.294C59.4213 43.0043 59.7196 42.7784 60.1003 42.6165C60.481 42.4517 60.9171 42.3693 61.4086 42.3693C62.1159 42.3693 62.6728 42.5227 63.079 42.8295C63.4853 43.1335 63.7537 43.5412 63.8844 44.0526Z" fill="white"/>
</svg>
