<svg width="16" height="16" viewBox="0 0 16 16" fill="none" xmlns="http://www.w3.org/2000/svg">
<path d="M2.16667 13.8333H3.33333L10.5208 6.64584L9.35417 5.47917L2.16667 12.6667V13.8333ZM14.0833 5.43751L10.5417 1.93751L11.7083 0.770838C12.0278 0.451394 12.4201 0.291672 12.8854 0.291672C13.3507 0.291672 13.7431 0.451394 14.0625 0.770838L15.2292 1.93751C15.5486 2.25695 15.7153 2.64237 15.7292 3.09376C15.7431 3.54514 15.5903 3.93056 15.2708 4.25001L14.0833 5.43751ZM12.875 6.66667L4.04167 15.5H0.5V11.9583L9.33333 3.12501L12.875 6.66667ZM9.9375 6.06251L9.35417 5.47917L10.5208 6.64584L9.9375 6.06251Z" fill="#3E424A"/>
</svg>
