<svg width="48" height="44" viewBox="0 0 48 44" fill="none" xmlns="http://www.w3.org/2000/svg">
<path d="M21.25 32L20.85 28.8C20.6333 28.7167 20.4293 28.6167 20.238 28.5C20.046 28.3833 19.8583 28.2583 19.675 28.125L16.7 29.375L13.95 24.625L16.525 22.675C16.5083 22.5583 16.5 22.4457 16.5 22.337V21.662C16.5 21.554 16.5083 21.4417 16.525 21.325L13.95 19.375L16.7 14.625L19.675 15.875C19.8583 15.7417 20.05 15.6167 20.25 15.5C20.45 15.3833 20.65 15.2833 20.85 15.2L21.25 12H26.75L27.15 15.2C27.3667 15.2833 27.571 15.3833 27.763 15.5C27.9543 15.6167 28.1417 15.7417 28.325 15.875L31.3 14.625L34.05 19.375L31.475 21.325C31.4917 21.4417 31.5 21.554 31.5 21.662V22.337C31.5 22.4457 31.4833 22.5583 31.45 22.675L34.025 24.625L31.275 29.375L28.325 28.125C28.1417 28.2583 27.95 28.3833 27.75 28.5C27.55 28.6167 27.35 28.7167 27.15 28.8L26.75 32H21.25ZM24.05 25.5C25.0167 25.5 25.8417 25.1583 26.525 24.475C27.2083 23.7917 27.55 22.9667 27.55 22C27.55 21.0333 27.2083 20.2083 26.525 19.525C25.8417 18.8417 25.0167 18.5 24.05 18.5C23.0667 18.5 22.2373 18.8417 21.562 19.525C20.8873 20.2083 20.55 21.0333 20.55 22C20.55 22.9667 20.8873 23.7917 21.562 24.475C22.2373 25.1583 23.0667 25.5 24.05 25.5ZM24.05 23.5C23.6333 23.5 23.2793 23.354 22.988 23.062C22.696 22.7707 22.55 22.4167 22.55 22C22.55 21.5833 22.696 21.2293 22.988 20.938C23.2793 20.646 23.6333 20.5 24.05 20.5C24.4667 20.5 24.821 20.646 25.113 20.938C25.4043 21.2293 25.55 21.5833 25.55 22C25.55 22.4167 25.4043 22.7707 25.113 23.062C24.821 23.354 24.4667 23.5 24.05 23.5ZM23 30H24.975L25.325 27.35C25.8417 27.2167 26.321 27.0207 26.763 26.762C27.2043 26.504 27.6083 26.1917 27.975 25.825L30.45 26.85L31.425 25.15L29.275 23.525C29.3583 23.2917 29.4167 23.0457 29.45 22.787C29.4833 22.529 29.5 22.2667 29.5 22C29.5 21.7333 29.4833 21.4707 29.45 21.212C29.4167 20.954 29.3583 20.7083 29.275 20.475L31.425 18.85L30.45 17.15L27.975 18.2C27.6083 17.8167 27.2043 17.4957 26.763 17.237C26.321 16.979 25.8417 16.7833 25.325 16.65L25 14H23.025L22.675 16.65C22.1583 16.7833 21.6793 16.979 21.238 17.237C20.796 17.4957 20.3917 17.8083 20.025 18.175L17.55 17.15L16.575 18.85L18.725 20.45C18.6417 20.7 18.5833 20.95 18.55 21.2C18.5167 21.45 18.5 21.7167 18.5 22C18.5 22.2667 18.5167 22.525 18.55 22.775C18.5833 23.025 18.6417 23.275 18.725 23.525L16.575 25.15L17.55 26.85L20.025 25.8C20.3917 26.1833 20.796 26.504 21.238 26.762C21.6793 27.0207 22.1583 27.2167 22.675 27.35L23 30Z" fill="#D8DCE1"/>
</svg>
